<mxfile host="app.diagrams.net" agent="Mozilla/5.0 (Windows NT 10.0; Win64; x64) AppleWebKit/537.36 (KHTML, like Gecko) Chrome/129.0.0.0 Safari/537.36" version="26.2.4" pages="2">
  <diagram name="Principal" id="ACpsxyY-bpDIMTgZThCk">
    <mxGraphModel dx="1108" dy="605" grid="1" gridSize="10" guides="1" tooltips="1" connect="1" arrows="1" fold="1" page="1" pageScale="1" pageWidth="827" pageHeight="1169" math="0" shadow="0">
      <root>
        <mxCell id="0" />
        <mxCell id="1" parent="0" />
        <mxCell id="eqTcUv8PbcIbo2UpaJhs-1" value="Inicio" style="ellipse;whiteSpace=wrap;html=1;" vertex="1" parent="1">
          <mxGeometry x="354" width="120" height="80" as="geometry" />
        </mxCell>
        <mxCell id="eqTcUv8PbcIbo2UpaJhs-5" style="edgeStyle=orthogonalEdgeStyle;rounded=0;orthogonalLoop=1;jettySize=auto;html=1;exitX=0.5;exitY=1;exitDx=0;exitDy=0;entryX=0.5;entryY=0;entryDx=0;entryDy=0;" edge="1" parent="1" source="eqTcUv8PbcIbo2UpaJhs-2" target="eqTcUv8PbcIbo2UpaJhs-4">
          <mxGeometry relative="1" as="geometry" />
        </mxCell>
        <mxCell id="eqTcUv8PbcIbo2UpaJhs-2" value="Digitar o diretóirio a ser explorado" style="shape=parallelogram;perimeter=parallelogramPerimeter;whiteSpace=wrap;html=1;fixedSize=1;" vertex="1" parent="1">
          <mxGeometry x="310" y="130" width="210" height="60" as="geometry" />
        </mxCell>
        <mxCell id="eqTcUv8PbcIbo2UpaJhs-3" value="" style="endArrow=classic;html=1;rounded=0;exitX=0.5;exitY=1;exitDx=0;exitDy=0;entryX=0.5;entryY=0;entryDx=0;entryDy=0;" edge="1" parent="1" source="eqTcUv8PbcIbo2UpaJhs-1" target="eqTcUv8PbcIbo2UpaJhs-2">
          <mxGeometry width="50" height="50" relative="1" as="geometry">
            <mxPoint x="390" y="240" as="sourcePoint" />
            <mxPoint x="440" y="190" as="targetPoint" />
          </mxGeometry>
        </mxCell>
        <mxCell id="067OPHhrKpL1vV0bbSpj-2" style="edgeStyle=orthogonalEdgeStyle;rounded=0;orthogonalLoop=1;jettySize=auto;html=1;exitX=0.5;exitY=1;exitDx=0;exitDy=0;entryX=0.5;entryY=0;entryDx=0;entryDy=0;" edge="1" parent="1" source="eqTcUv8PbcIbo2UpaJhs-4" target="067OPHhrKpL1vV0bbSpj-1">
          <mxGeometry relative="1" as="geometry" />
        </mxCell>
        <mxCell id="eqTcUv8PbcIbo2UpaJhs-4" value="Listar" style="shape=process;whiteSpace=wrap;html=1;backgroundOutline=1;" vertex="1" parent="1">
          <mxGeometry x="354" y="280" width="120" height="60" as="geometry" />
        </mxCell>
        <mxCell id="067OPHhrKpL1vV0bbSpj-4" style="edgeStyle=orthogonalEdgeStyle;rounded=0;orthogonalLoop=1;jettySize=auto;html=1;exitX=0.5;exitY=1;exitDx=0;exitDy=0;entryX=0.5;entryY=0;entryDx=0;entryDy=0;" edge="1" parent="1" source="067OPHhrKpL1vV0bbSpj-1" target="067OPHhrKpL1vV0bbSpj-3">
          <mxGeometry relative="1" as="geometry" />
        </mxCell>
        <mxCell id="067OPHhrKpL1vV0bbSpj-1" value="Mostrar resultado" style="shape=step;perimeter=stepPerimeter;whiteSpace=wrap;html=1;fixedSize=1;" vertex="1" parent="1">
          <mxGeometry x="319" y="400" width="190" height="80" as="geometry" />
        </mxCell>
        <mxCell id="067OPHhrKpL1vV0bbSpj-3" value="Finalizar" style="ellipse;whiteSpace=wrap;html=1;" vertex="1" parent="1">
          <mxGeometry x="354" y="540" width="120" height="80" as="geometry" />
        </mxCell>
      </root>
    </mxGraphModel>
  </diagram>
  <diagram id="Ofn1F00nzfM2vgq5Kfgj" name="Parte 2">
    <mxGraphModel dx="1108" dy="605" grid="1" gridSize="10" guides="1" tooltips="1" connect="1" arrows="1" fold="1" page="1" pageScale="1" pageWidth="827" pageHeight="1169" math="0" shadow="0">
      <root>
        <mxCell id="0" />
        <mxCell id="1" parent="0" />
        <mxCell id="7AmUDqlEOzHoAsnbiffr-2" style="edgeStyle=orthogonalEdgeStyle;rounded=0;orthogonalLoop=1;jettySize=auto;html=1;exitX=0.5;exitY=1;exitDx=0;exitDy=0;entryX=0.5;entryY=0;entryDx=0;entryDy=0;" edge="1" parent="1" source="Km-AqOUsDgwSNZWKj00t-1" target="7AmUDqlEOzHoAsnbiffr-1">
          <mxGeometry relative="1" as="geometry" />
        </mxCell>
        <mxCell id="Km-AqOUsDgwSNZWKj00t-1" value="Listar Diretório" style="ellipse;whiteSpace=wrap;html=1;" vertex="1" parent="1">
          <mxGeometry x="354" width="120" height="80" as="geometry" />
        </mxCell>
        <mxCell id="SPQo0RjMO-qkgfjyZj45-2" style="edgeStyle=orthogonalEdgeStyle;rounded=0;orthogonalLoop=1;jettySize=auto;html=1;exitX=0.5;exitY=1;exitDx=0;exitDy=0;entryX=0.5;entryY=0;entryDx=0;entryDy=0;" edge="1" parent="1" source="7AmUDqlEOzHoAsnbiffr-1" target="SPQo0RjMO-qkgfjyZj45-1">
          <mxGeometry relative="1" as="geometry" />
        </mxCell>
        <mxCell id="7AmUDqlEOzHoAsnbiffr-1" value="Análise de Diretório" style="rounded=0;whiteSpace=wrap;html=1;" vertex="1" parent="1">
          <mxGeometry x="354" y="120" width="120" height="60" as="geometry" />
        </mxCell>
        <mxCell id="SPQo0RjMO-qkgfjyZj45-5" style="edgeStyle=orthogonalEdgeStyle;rounded=0;orthogonalLoop=1;jettySize=auto;html=1;exitX=1;exitY=0.5;exitDx=0;exitDy=0;entryX=0.5;entryY=0;entryDx=0;entryDy=0;" edge="1" parent="1" source="SPQo0RjMO-qkgfjyZj45-6" target="SPQo0RjMO-qkgfjyZj45-4">
          <mxGeometry relative="1" as="geometry" />
        </mxCell>
        <mxCell id="SPQo0RjMO-qkgfjyZj45-10" style="edgeStyle=orthogonalEdgeStyle;rounded=0;orthogonalLoop=1;jettySize=auto;html=1;exitX=0;exitY=0.5;exitDx=0;exitDy=0;entryX=0.5;entryY=0;entryDx=0;entryDy=0;" edge="1" parent="1" source="SPQo0RjMO-qkgfjyZj45-1" target="SPQo0RjMO-qkgfjyZj45-8">
          <mxGeometry relative="1" as="geometry">
            <Array as="points">
              <mxPoint x="270" y="315" />
              <mxPoint x="270" y="443" />
              <mxPoint x="414" y="443" />
            </Array>
          </mxGeometry>
        </mxCell>
        <mxCell id="SPQo0RjMO-qkgfjyZj45-11" value="Não" style="edgeLabel;html=1;align=center;verticalAlign=middle;resizable=0;points=[];" vertex="1" connectable="0" parent="SPQo0RjMO-qkgfjyZj45-10">
          <mxGeometry x="-0.5545" y="-4" relative="1" as="geometry">
            <mxPoint y="52" as="offset" />
          </mxGeometry>
        </mxCell>
        <mxCell id="SPQo0RjMO-qkgfjyZj45-1" value="Há um subdiretório?" style="rhombus;whiteSpace=wrap;html=1;" vertex="1" parent="1">
          <mxGeometry x="349" y="250" width="130" height="130" as="geometry" />
        </mxCell>
        <mxCell id="SPQo0RjMO-qkgfjyZj45-9" style="edgeStyle=orthogonalEdgeStyle;rounded=0;orthogonalLoop=1;jettySize=auto;html=1;exitX=0.5;exitY=1;exitDx=0;exitDy=0;entryX=0.5;entryY=0;entryDx=0;entryDy=0;" edge="1" parent="1" source="SPQo0RjMO-qkgfjyZj45-4" target="SPQo0RjMO-qkgfjyZj45-8">
          <mxGeometry relative="1" as="geometry" />
        </mxCell>
        <mxCell id="SPQo0RjMO-qkgfjyZj45-4" value="Listar Diretório" style="shape=process;whiteSpace=wrap;html=1;backgroundOutline=1;" vertex="1" parent="1">
          <mxGeometry x="510" y="380" width="120" height="60" as="geometry" />
        </mxCell>
        <mxCell id="SPQo0RjMO-qkgfjyZj45-7" value="" style="edgeStyle=orthogonalEdgeStyle;rounded=0;orthogonalLoop=1;jettySize=auto;html=1;exitX=1;exitY=0.5;exitDx=0;exitDy=0;entryX=0.5;entryY=0;entryDx=0;entryDy=0;" edge="1" parent="1" source="SPQo0RjMO-qkgfjyZj45-1" target="SPQo0RjMO-qkgfjyZj45-6">
          <mxGeometry relative="1" as="geometry">
            <mxPoint x="479" y="315" as="sourcePoint" />
            <mxPoint x="570" y="380" as="targetPoint" />
            <Array as="points">
              <mxPoint x="499" y="315" />
              <mxPoint x="499" y="305" />
              <mxPoint x="530" y="305" />
            </Array>
          </mxGeometry>
        </mxCell>
        <mxCell id="SPQo0RjMO-qkgfjyZj45-6" value="Sim" style="text;html=1;align=center;verticalAlign=middle;resizable=0;points=[];autosize=1;strokeColor=none;fillColor=none;" vertex="1" parent="1">
          <mxGeometry x="570" y="310" width="40" height="30" as="geometry" />
        </mxCell>
        <mxCell id="SPQo0RjMO-qkgfjyZj45-8" value="Finalizar e mostrar" style="ellipse;whiteSpace=wrap;html=1;" vertex="1" parent="1">
          <mxGeometry x="354" y="505" width="120" height="80" as="geometry" />
        </mxCell>
      </root>
    </mxGraphModel>
  </diagram>
</mxfile>
